<svg xmlns="http://www.w3.org/2000/svg" version="1.1" xmlns:xlink="http://www.w3.org/1999/xlink" xmlns:svgjs="http://svgjs.dev/svgjs" width="1000" height="464" viewBox="0 0 1000 464"><g transform="matrix(1,0,0,1,-0.6060186835504737,-0.2516930499097043)"><svg viewBox="0 0 396 184" data-background-color="#ffffff" preserveAspectRatio="xMidYMid meet" height="464" width="1000" xmlns="http://www.w3.org/2000/svg" xmlns:xlink="http://www.w3.org/1999/xlink"><g id="tight-bounds" transform="matrix(1,0,0,1,0.23998339868597895,0.09980931289523198)"><svg viewBox="0 0 395.52 183.80038137420954" height="183.80038137420954" width="395.52"><g><svg viewBox="0 0 395.52000000000004 183.80038137420956" height="183.80038137420954" width="395.52"><g transform="matrix(1,0,0,1,0,110.3314526780598)"><svg viewBox="0 0 395.52000000000004 73.46892869614975" height="73.46892869614975" width="395.52000000000004"><g><svg viewBox="0 0 395.52000000000004 73.46892869614975" height="73.46892869614975" width="395.52000000000004"><g><svg viewBox="0 0 395.52000000000004 48.366522608173824" height="48.366522608173824" width="395.52000000000004"><g transform="matrix(1,0,0,1,0,0)"><svg width="395.52000000000004" viewBox="4.199999809265137 -35.38999938964844 293.0999755859375 35.850677490234375" height="48.366522608173824" data-palette-color="#3d49d0"><path d="M33.16 0L33.16-15.75Q33.16-17.34 33.18-18.29 33.19-19.24 33.52-26.04L33.52-26.04 33.32-26.04 24.72 0 18.28 0 10.26-26.09 10.06-26.09Q10.49-17.87 10.49-15.47L10.49-15.47 10.49 0 4.2 0 4.2-33.27 13.78-33.27 21.66-7.84 21.79-7.84 30.13-33.27 39.74-33.27 39.74 0 33.16 0ZM62.94-15.6Q62.91-18.15 61.63-19.57 60.34-20.98 58.12-20.98 55.91-20.98 54.65-19.58 53.38-18.17 53.21-15.6L53.21-15.6 62.94-15.6ZM68.02-6.7L68.02-1.34Q64.43 0.46 59.07 0.46L59.07 0.46Q52.93 0.46 49.48-2.92 46.03-6.29 46.03-12.61 46.03-18.93 49.21-22.42L49.21-22.42Q52.45-25.91 57.95-25.91 63.45-25.91 66.45-22.83 69.46-19.74 69.46-14.36L69.46-14.36 69.46-11 53.06-11Q53.16-8.01 54.81-6.36 56.47-4.7 59.4-4.7L59.4-4.7Q63.77-4.7 68.02-6.7L68.02-6.7ZM90.67-3.29L90.36-3.29Q87.99 0.46 83.32 0.46 78.66 0.46 76.11-3.01L76.11-3.01Q73.55-6.52 73.55-12.74 73.55-18.96 76.17-22.43 78.79-25.91 83.46-25.91 88.14-25.91 90.67-22.17L90.67-22.17 90.89-22.17Q90.36-25.03 90.36-27.25L90.36-27.25 90.36-35.39 97.32-35.39 97.32 0 92.01 0 90.67-3.29ZM80.58-12.59L80.58-12.59Q80.58-5.08 85.59-5.08L85.59-5.08Q88.24-5.08 89.49-6.64 90.74-8.19 90.84-11.88L90.84-11.88 90.84-12.61Q90.84-16.71 89.58-18.49 88.32-20.27 85.46-20.27L85.46-20.27Q83.13-20.27 81.86-18.29 80.58-16.3 80.58-12.59ZM104.57-25.43L111.49-25.43 111.49 0 104.57 0 104.57-25.43ZM108.06-28.59L108.06-28.59Q104.26-28.59 104.26-31.99 104.26-35.39 108.04-35.39 111.82-35.39 111.82-32L111.82-32Q111.82-30.36 110.86-29.47 109.9-28.59 108.06-28.59ZM130.12-12.77L126.38-12.77 126.38 0 119.33 0 119.33-33.27 129.01-33.27Q135.76-33.27 139.03-30.8 142.31-28.34 142.31-23.31L142.31-23.31Q142.31-20.37 140.7-18.09 139.1-15.8 136.11-14.48L136.11-14.48Q143.62-3.29 145.89 0L145.89 0 138.06 0 130.12-12.77ZM128.5-27.48L126.38-27.48 126.38-18.5 128.66-18.5Q131.99-18.5 133.58-19.62 135.18-20.73 135.18-23.08 135.18-25.43 133.57-26.45 131.97-27.48 128.5-27.48L128.5-27.48ZM164.9-15.6Q164.88-18.15 163.59-19.57 162.3-20.98 160.09-20.98 157.87-20.98 156.61-19.58 155.35-18.17 155.17-15.6L155.17-15.6 164.9-15.6ZM169.98-6.7L169.98-1.34Q166.39 0.46 161.03 0.46L161.03 0.46Q154.89 0.46 151.44-2.92 147.99-6.29 147.99-12.61 147.99-18.93 151.18-22.42L151.18-22.42Q154.41-25.91 159.91-25.91 165.41-25.91 168.42-22.83 171.42-19.74 171.42-14.36L171.42-14.36 171.42-11 155.02-11Q155.12-8.01 156.77-6.36 158.43-4.7 161.36-4.7L161.36-4.7Q165.74-4.7 169.98-6.7L169.98-6.7ZM187.4 0.46L187.4 0.46Q175.52 0.46 175.52-12.59L175.52-12.59Q175.52-19.06 178.74-22.48 181.96-25.91 188-25.91L188-25.91Q192.35-25.91 195.92-24.19L195.92-24.19 193.87-18.81Q190.1-20.32 188-20.32L188-20.32Q182.59-20.32 182.59-12.74 182.59-5.16 188-5.16L188-5.16Q191.77-5.16 195.13-7.38L195.13-7.38 195.13-1.44Q193.49-0.38 191.78 0.04 190.08 0.46 187.4 0.46ZM215.79-18.47Q214.54-20.32 211.79-20.32 209.03-20.32 207.79-18.47 206.55-16.61 206.55-12.75 206.55-8.9 207.82-7 209.08-5.11 211.81-5.11 214.54-5.11 215.79-7 217.05-8.9 217.05-12.75 217.05-16.61 215.79-18.47ZM211.86-25.91L211.86-25.91Q217.4-25.99 220.81-22.36 224.22-18.73 224.12-12.77L224.12-12.77Q224.12-6.55 220.85-3.05 217.58 0.46 211.74 0.46L211.74 0.46Q206.2 0.51 202.8-3.13 199.4-6.77 199.48-12.77L199.48-12.77Q199.48-18.98 202.71-22.45L202.71-22.45Q205.97-25.91 211.86-25.91ZM244.06-25.91L244.06-25.91Q245.38-25.91 246.39-25.71L246.39-25.71 245.88-19.21Q245.03-19.44 243.84-19.44L243.84-19.44Q240.5-19.44 238.64-17.73 236.78-16.03 236.78-12.94L236.78-12.94 236.78 0 229.86 0 229.86-25.43 235.12-25.43 236.13-21.16 236.48-21.16Q237.69-23.33 239.72-24.62 241.74-25.91 244.06-25.91ZM265.65-3.29L265.35-3.29Q262.97 0.46 258.31 0.46 253.64 0.46 251.09-3.01L251.09-3.01Q248.54-6.52 248.54-12.74 248.54-18.96 251.15-22.43 253.77-25.91 258.45-25.91 263.12-25.91 265.65-22.17L265.65-22.17 265.88-22.17Q265.35-25.03 265.35-27.25L265.35-27.25 265.35-35.39 272.3-35.39 272.3 0 266.99 0 265.65-3.29ZM255.56-12.59L255.56-12.59Q255.56-5.08 260.57-5.08L260.57-5.08Q263.22-5.08 264.47-6.64 265.73-8.19 265.83-11.88L265.83-11.88 265.83-12.61Q265.83-16.71 264.56-18.49 263.3-20.27 260.44-20.27L260.44-20.27Q258.12-20.27 256.84-18.29 255.56-16.3 255.56-12.59ZM294.59-13.2L294.59-13.2Q297.3-11.15 297.3-7.38 297.3-3.61 294.57-1.58 291.84 0.46 286.72 0.46 281.6 0.46 278.06-1.01L278.06-1.01 278.06-6.75Q280.01-5.84 282.42-5.23 284.83-4.63 286.68-4.63L286.68-4.63Q290.45-4.63 290.45-6.8L290.45-6.8Q290.45-7.89 289.43-8.57 288.42-9.25 285.23-10.64 282.03-12.03 280.61-13.07L280.61-13.07Q279.25-14.13 278.63-15.48 278.01-16.84 278.01-18.81L278.01-18.81Q278.01-22.19 280.64-24.05 283.27-25.91 287.98-25.91 292.69-25.91 297.02-23.91L297.02-23.91 294.92-18.91Q292.72-19.84 291.14-20.31 289.56-20.78 287.97-20.78L287.97-20.78Q284.88-20.78 284.88-19.11L284.88-19.11Q284.88-18.17 285.92-17.47 286.96-16.76 290.05-15.52 293.15-14.28 294.59-13.2Z" opacity="1" transform="matrix(1,0,0,1,0,0)" fill="#3d49d0" class="undefined-text-0" data-fill-palette-color="primary" id="text-0"></path></svg></g></svg></g><g transform="matrix(1,0,0,1,122.21568,59.78469779942107)"><svg viewBox="0 0 151.08864000000003 13.684230896728675" height="13.684230896728675" width="151.08864000000003"><g transform="matrix(1,0,0,1,0,0)"><svg width="151.08864000000003" viewBox="4.599999904632568 -34.79999923706055 389.7200012207031 35.29999923706055" height="13.684230896728675" data-palette-color="#636dd8"><path d="M19.4-34.3Q22.3-34.3 24.65-33 27-31.7 28.33-29.43 29.65-27.15 29.65-24.3L29.65-24.3Q29.65-21.45 28.33-19.18 27-16.9 24.65-15.6 22.3-14.3 19.4-14.3L19.4-14.3 9.5-14.3 9.5 0 4.6 0 4.6-34.3 19.4-34.3ZM18.95-29.85L9.5-29.85 9.5-18.75 18.95-18.75Q21.3-18.75 23.03-20.38 24.75-22 24.75-24.3L24.75-24.3Q24.75-26.65 23.03-28.25 21.3-29.85 18.95-29.85L18.95-29.85ZM56.35-34.3L61.25-34.3 61.25 0 56.35 0 56.35-15.3 40.7-15.3 40.7 0 35.8 0 35.8-34.3 40.7-34.3 40.7-19.75 56.35-19.75 56.35-34.3ZM79.44-34.3L84.84-34.3 98.25 0 92.94 0 90.05-7.45 73.64-7.45 70.8 0 66.05 0 79.44-34.3ZM88.34-11.9L82.05-28.4 81.75-28.4 75.39-11.9 88.34-11.9ZM117.64-34.3Q122.19-34.3 125.12-32.15 128.04-30 128.04-26.25L128.04-26.25Q128.04-22.9 126.27-20.55 124.49-18.2 121.89-17.7L121.89-17.7 121.89-17.45Q124.29-16.5 125.84-14.15 127.39-11.8 127.39-8.5L127.39-8.5Q127.39-5.75 127.69-4.35 127.99-2.95 128.49-2.4 128.99-1.85 129.94-1.55L129.94-1.55 129.94-0.15Q128.84 0.3 127.59 0.3L127.59 0.3Q125.19 0.3 123.84-1.13 122.49-2.55 122.49-6.5L122.49-6.5Q122.49-10.55 120.82-12.83 119.14-15.1 116.64-15.1L116.64-15.1 107.94-15.1 107.94 0 103.04 0 103.04-34.3 117.64-34.3ZM117.69-29.85L107.94-29.85 107.94-19.55 117.69-19.55Q119.84-19.55 121.49-21 123.14-22.45 123.14-24.6L123.14-24.6 123.14-24.8Q123.14-27 121.64-28.43 120.14-29.85 117.69-29.85L117.69-29.85ZM166.59-34.3L174.24-34.3 174.24 0 169.34 0 169.34-28.55 169.04-28.55 157.19 0 153.04 0 141.24-28.55 140.99-28.55 140.99 0 136.54 0 136.54-34.3 144.24-34.3 155.29-7.3 155.49-7.3 166.59-34.3ZM192.44-34.3L197.84-34.3 211.24 0 205.94 0 203.04-7.45 186.64-7.45 183.79 0 179.04 0 192.44-34.3ZM201.34-11.9L195.04-28.4 194.74-28.4 188.39-11.9 201.34-11.9ZM228.63-34.8Q232.63-34.8 235.63-33.15 238.63-31.5 240.26-28.43 241.88-25.35 241.88-21.15L241.88-21.15 236.99-21.15Q236.99-25.5 234.84-27.93 232.69-30.35 228.63-30.35L228.63-30.35Q224.13-30.35 221.78-27.58 219.44-24.8 219.44-19.4L219.44-19.4 219.44-14.9Q219.44-9.55 221.74-6.75 224.03-3.95 228.53-3.95L228.53-3.95Q232.74-3.95 234.96-6.35 237.19-8.75 237.19-13.05L237.19-13.05 241.88-13.05Q241.88-8.9 240.26-5.85 238.63-2.8 235.63-1.15 232.63 0.5 228.63 0.5L228.63 0.5Q221.99 0.5 218.26-3.58 214.53-7.65 214.53-14.9L214.53-14.9 214.53-19.4Q214.53-26.6 218.26-30.7 221.99-34.8 228.63-34.8L228.63-34.8ZM268.33-34.3L273.38-34.3 261.33-13.25 261.33 0 256.43 0 256.43-13.25 244.33-34.3 249.93-34.3 259.08-18.35 259.28-18.35 268.33-34.3ZM302.58-34.8Q306.58-34.8 309.58-33.15 312.58-31.5 314.2-28.43 315.83-25.35 315.83-21.15L315.83-21.15 310.93-21.15Q310.93-25.5 308.78-27.93 306.63-30.35 302.58-30.35L302.58-30.35Q298.08-30.35 295.73-27.58 293.38-24.8 293.38-19.4L293.38-19.4 293.38-14.9Q293.38-9.55 295.68-6.75 297.98-3.95 302.48-3.95L302.48-3.95Q306.68-3.95 308.9-6.35 311.13-8.75 311.13-13.05L311.13-13.05 315.83-13.05Q315.83-8.9 314.2-5.85 312.58-2.8 309.58-1.15 306.58 0.5 302.58 0.5L302.58 0.5Q295.93 0.5 292.2-3.58 288.48-7.65 288.48-14.9L288.48-14.9 288.48-19.4Q288.48-26.6 292.2-30.7 295.93-34.8 302.58-34.8L302.58-34.8ZM337.72-34.3Q342.27-34.3 345.2-32.15 348.13-30 348.13-26.25L348.13-26.25Q348.13-22.9 346.35-20.55 344.57-18.2 341.97-17.7L341.97-17.7 341.97-17.45Q344.38-16.5 345.92-14.15 347.47-11.8 347.47-8.5L347.47-8.5Q347.47-5.75 347.77-4.35 348.07-2.95 348.57-2.4 349.07-1.85 350.02-1.55L350.02-1.55 350.02-0.15Q348.92 0.3 347.67 0.3L347.67 0.3Q345.27 0.3 343.92-1.13 342.57-2.55 342.57-6.5L342.57-6.5Q342.57-10.55 340.9-12.83 339.22-15.1 336.72-15.1L336.72-15.1 328.02-15.1 328.02 0 323.13 0 323.13-34.3 337.72-34.3ZM337.77-29.85L328.02-29.85 328.02-19.55 337.77-19.55Q339.92-19.55 341.57-21 343.22-22.45 343.22-24.6L343.22-24.6 343.22-24.8Q343.22-27 341.72-28.43 340.22-29.85 337.77-29.85L337.77-29.85ZM386.67-34.3L394.32-34.3 394.32 0 389.42 0 389.42-28.55 389.12-28.55 377.27 0 373.12 0 361.32-28.55 361.07-28.55 361.07 0 356.62 0 356.62-34.3 364.32-34.3 375.37-7.3 375.57-7.3 386.67-34.3Z" opacity="1" transform="matrix(1,0,0,1,0,0)" fill="#636dd8" class="undefined-text-1" data-fill-palette-color="secondary" id="text-1"></path></svg></g></svg></g></svg></g></svg></g><g transform="matrix(1,0,0,1,154.01244885221735,0)"><svg viewBox="0 0 87.49510229556532 87.49510229556532" height="87.49510229556532" width="87.49510229556532"><g><svg></svg></g><g id="icon-0"><svg viewBox="0 0 87.49510229556532 87.49510229556532" height="87.49510229556532" width="87.49510229556532"><g><path d="M0 43.748c0-24.161 19.586-43.748 43.748-43.748 24.161 0 43.748 19.586 43.747 43.748 0 24.161-19.586 43.748-43.747 43.747-24.161 0-43.748-19.586-43.748-43.747zM43.748 83.133c21.752 0 39.386-17.634 39.385-39.385 0-21.752-17.634-39.386-39.385-39.386-21.752 0-39.386 17.634-39.386 39.386 0 21.752 17.634 39.386 39.386 39.385z" data-fill-palette-color="accent" fill="#5762d5" stroke="transparent"></path><ellipse rx="43.31007563630483" ry="43.31007563630483" cx="43.74755114778266" cy="43.74755114778266" fill="#5762d5" stroke="transparent" stroke-width="0" fill-opacity="1" data-fill-palette-color="accent"></ellipse></g><g transform="matrix(1,0,0,1,28.170665674195305,20.218555874332118)"><svg viewBox="0 0 31.153770947174703 47.05799054690108" height="47.05799054690108" width="31.153770947174703"><g><svg xmlns="http://www.w3.org/2000/svg" xmlns:xlink="http://www.w3.org/1999/xlink" version="1.1" x="0" y="0" viewBox="24.761856079101562 5 59.5826416015625 90" enable-background="new 0 0 100 100" xml:space="preserve" height="47.05799054690108" width="31.153770947174703" class="icon-a-0" data-fill-palette-color="quaternary" id="a-0"><g fill="#ffffff" data-fill-palette-color="quaternary"><path d="M73.76 35.603C86.875 48 91.5 66.25 65.633 82.379c3.64-4.928 5.654-9.794 6.096-14.669 0.951-10.516-5.606-19.072-12.835-26.752C48.298 29.7 47.51 18.84 56.413 6.782 54.578 22.641 64.6 26.944 73.76 35.603zM45.288 93.716c6.184-13.053 7.276-20.302-8.197-34.939-4.204-3.977-7.451-8.029-9.71-12.086-2.881 6.435-5.164 20.081 3.244 27.935C36.312 79.938 44.125 83.125 45.288 93.716zM56.709 43.014C48.183 33.954 41.999 21.253 54 5 21.497 17.692 19.625 38.125 39.151 56.597 55.603 72.158 54.75 80.75 48 95 79.875 71.5 68.709 55.764 56.709 43.014z" fill="#ffffff" data-fill-palette-color="quaternary"></path></g><g display="none" fill="#ffffff" data-fill-palette-color="quaternary"><path display="inline" d="M54 5C16.75 17.5 14.875 56.5 26.75 70.762c10.558 12.68 15.407 7.949 19.675 20.824" fill="#ffffff" data-fill-palette-color="quaternary"></path><line display="inline" x1="56.988" y1="5.261" x2="45.528" y2="136.262" fill="#ffffff" data-fill-palette-color="quaternary"></line><line display="inline" x1="54.131" y1="3.502" x2="42.67" y2="134.502" fill="#ffffff" data-fill-palette-color="quaternary"></line><path display="inline" d="M42.875 76" fill="#ffffff" data-fill-palette-color="quaternary"></path></g></svg></g></svg></g></svg></g></svg></g><g></g></svg></g><defs></defs></svg><rect width="395.52" height="183.80038137420954" fill="none" stroke="none" visibility="hidden"></rect></g></svg></g></svg>